<?xml version="1.0" standalone="no"?>
<!DOCTYPE svg PUBLIC "-//W3C//DTD SVG 20010904//EN"
 "http://www.w3.org/TR/2001/REC-SVG-20010904/DTD/svg10.dtd">
<svg version="1.0" xmlns="http://www.w3.org/2000/svg"
 width="512.000000pt" height="512.000000pt" viewBox="0 0 512.000000 512.000000"
 preserveAspectRatio="xMidYMid meet">
<g transform="translate(0.000000,512.000000) scale(0.100000,-0.100000)"
fill="#000000" stroke="none">
<path d="M3341 4889 c-13 -5 -30 -17 -37 -27 -7 -9 -14 -12 -14 -7 -1 6 -8 -6
-15 -25 -20 -51 -19 -305 1 -345 8 -16 12 -21 8 -10 -11 39 -17 173 -9 258 7
89 22 120 71 145 28 15 109 -21 100 -44 -3 -8 -2 -12 4 -9 6 3 10 1 10 -5 0
-6 6 -8 13 -4 6 4 4 -2 -5 -13 -18 -20 -24 -59 -10 -65 4 -1 5 -46 2 -98 -3
-52 -3 -97 1 -100 14 -11 -4 -73 -22 -77 -10 -3 -16 -9 -13 -14 5 -9 -9 -13
-33 -10 -7 1 -13 -3 -13 -10 0 -6 -15 -2 -36 10 -39 24 -60 20 -28 -4 47 -37
119 -24 158 28 18 25 21 45 24 169 5 153 -4 201 -40 235 -27 26 -84 36 -117
22z"/>
<path d="M2173 4404 c-42 -21 -67 -74 -58 -122 5 -29 29 -60 108 -140 56 -57
114 -110 129 -118 79 -41 168 15 168 107 0 40 -5 47 -112 154 -62 62 -123 118
-135 124 -30 15 -62 14 -100 -5z m215 -119 c109 -109 112 -113 112 -156 0 -24
-6 -51 -13 -60 -27 -36 -106 -56 -93 -24 5 13 2 14 -15 5 -23 -13 -49 2 -49
26 0 8 -5 14 -11 14 -7 0 -9 9 -6 21 3 12 3 18 0 15 -9 -8 -34 15 -27 25 3 5
-2 6 -10 3 -20 -8 -50 22 -42 42 3 8 2 13 -3 10 -10 -7 -33 18 -25 27 3 3 -3
3 -15 0 -13 -3 -21 -1 -21 6 0 7 -5 9 -10 6 -6 -4 -10 -3 -9 2 4 23 -2 43 -12
38 -16 -10 1 64 20 87 9 11 25 24 36 28 45 19 78 0 193 -115z m-173 -94 c-6
-5 -25 10 -25 20 0 5 6 4 14 -3 8 -7 12 -15 11 -17z m80 -80 c-6 -5 -25 10
-25 20 0 5 6 4 14 -3 8 -7 12 -15 11 -17z"/>
<path d="M4510 4413 c54 -6 81 -23 75 -47 -3 -12 -2 -15 1 -8 5 10 9 10 20 1
17 -14 19 -33 2 -23 -10 6 -10 4 0 -7 6 -7 12 -24 11 -38 0 -24 -1 -24 -9 -6
-7 16 -9 13 -15 -22 -4 -24 -11 -40 -16 -37 -5 3 -9 0 -9 -6 0 -6 -5 -8 -12
-4 -6 4 -8 3 -5 -3 7 -11 -67 -85 -77 -77 -3 2 -4 1 -1 -3 8 -11 -36 -52 -50
-47 -17 7 -29 -12 -14 -22 8 -5 9 -3 4 6 -6 9 -4 11 4 6 14 -9 7 -19 -15 -22
-9 -1 -23 -6 -32 -10 -37 -16 -110 5 -96 27 3 5 -2 9 -10 9 -28 0 -24 85 5
111 20 17 25 29 12 29 -5 0 -19 -16 -31 -35 -61 -89 37 -206 140 -166 22 9
117 98 206 194 36 40 42 53 42 90 0 72 -52 119 -127 115 l-38 -1 35 -4z"/>
<path d="M4372 4315 c-45 -47 -79 -85 -74 -85 4 0 47 38 94 85 48 47 81 85 75
85 -7 0 -49 -38 -95 -85z"/>
<path d="M4450 4339 c0 -5 5 -7 10 -4 6 3 10 8 10 11 0 2 -4 4 -10 4 -5 0 -10
-5 -10 -11z"/>
<path d="M4381 4273 c-7 -8 -11 -16 -8 -19 2 -2 10 2 17 11 17 20 9 27 -9 8z"/>
<path d="M3273 4233 c-95 -7 -55 -22 51 -20 58 1 97 5 88 9 -29 11 -1 9 113
-11 111 -20 246 -57 255 -71 3 -4 16 -11 30 -15 42 -12 151 -76 145 -84 -2 -5
2 -8 11 -7 22 2 204 -156 198 -172 -2 -7 0 -10 6 -7 5 3 17 -7 27 -22 9 -15
28 -39 40 -52 13 -14 21 -31 19 -38 -3 -8 -1 -11 4 -8 6 3 10 0 10 -9 0 -8 11
-28 25 -44 52 -62 150 -350 130 -383 -4 -5 -3 -15 2 -22 13 -17 17 -251 4
-243 -6 4 -8 -7 -4 -30 4 -26 3 -35 -5 -30 -7 4 -9 -9 -6 -44 2 -27 0 -50 -5
-50 -8 0 -26 -66 -23 -82 1 -5 -2 -8 -8 -8 -5 0 -7 -8 -4 -17 5 -15 3 -15 -12
2 l-17 20 7 -20 c4 -11 8 -22 9 -25 3 -12 -25 -80 -34 -80 -5 0 -9 -6 -9 -13
0 -7 -7 -22 -16 -33 -14 -17 -15 -17 -10 -1 4 11 2 16 -5 12 -6 -4 -8 -14 -5
-22 8 -20 -12 -55 -26 -47 -7 4 -8 3 -4 -5 4 -6 -5 -27 -21 -47 -63 -79 -116
-133 -124 -128 -5 3 -6 -3 -2 -12 5 -14 3 -16 -11 -11 -9 4 -15 3 -11 -2 3 -5
-7 -19 -22 -30 -16 -11 -32 -24 -38 -29 -26 -20 -37 -23 -53 -11 -14 11 -15
11 -5 0 9 -11 5 -19 -18 -39 -17 -13 -40 -25 -52 -26 -12 -1 -21 -7 -19 -14 3
-16 -11 -15 -27 0 -10 11 -11 10 -6 -3 4 -11 -5 -19 -35 -29 -22 -7 -40 -16
-40 -20 0 -15 -37 -6 -65 17 -16 13 -35 27 -40 31 -32 26 -184 93 -233 103
-68 15 -276 21 -308 9 -22 -9 -22 -9 -8 27 18 41 21 267 5 321 -6 19 -7 48 -4
64 4 20 3 29 -4 25 -6 -4 -13 7 -17 25 -3 17 -9 28 -12 25 -4 -3 -1 -20 4 -37
25 -69 36 -236 24 -338 -7 -53 -15 -108 -19 -121 -6 -22 -4 -23 18 -17 13 4
69 10 124 13 81 4 116 1 189 -16 93 -22 201 -73 274 -129 l43 -33 82 39 c167
78 315 195 418 331 67 89 153 265 184 381 37 132 45 319 20 456 -75 423 -384
759 -795 866 -59 15 -232 37 -280 36 -25 -1 -69 -3 -97 -5z"/>
<path d="M3140 4209 c-36 -11 -88 -26 -116 -34 -66 -18 -204 -89 -273 -140
-73 -55 -198 -178 -250 -247 -23 -31 -67 -106 -96 -165 l-53 -108 78 -27 c70
-23 217 -93 230 -108 10 -12 55 -40 64 -40 18 0 -48 49 -110 81 -34 18 -60 37
-58 41 3 4 -2 5 -10 2 -9 -3 -16 -1 -16 6 0 6 -4 9 -9 5 -8 -4 -52 12 -120 45
-8 3 -17 13 -19 21 -3 11 -1 11 8 -1 10 -13 11 -12 6 3 -7 21 53 139 66 131 4
-3 5 1 3 8 -10 24 76 140 174 236 51 50 98 92 103 92 5 0 23 13 41 30 18 16
37 30 43 30 6 0 27 11 46 23 19 13 46 27 61 31 15 3 27 11 27 16 0 5 54 21
120 36 68 16 121 33 124 41 3 7 4 13 3 12 -1 0 -31 -9 -67 -20z"/>
<path d="M2546 3795 c-9 -26 -7 -32 5 -12 6 10 9 21 6 23 -2 3 -7 -2 -11 -11z"/>
<path d="M2093 3533 c15 -2 37 -2 50 0 12 2 0 4 -28 4 -27 0 -38 -2 -22 -4z"/>
<path d="M2290 3516 c0 -2 9 -6 20 -9 11 -3 18 -1 14 4 -5 9 -34 13 -34 5z"/>
<path d="M2736 3332 c-6 -10 5 -21 34 -37 10 -5 8 0 -5 16 -11 13 -21 25 -21
27 -1 2 -5 -1 -8 -6z"/>
<path d="M2790 3283 c0 -5 23 -31 50 -58 28 -27 50 -47 50 -43 0 3 -22 29 -50
58 -27 29 -50 48 -50 43z"/>
<path d="M4693 3253 c-18 -9 -33 -23 -33 -31 0 -7 -7 -21 -16 -29 -25 -25 -10
-82 31 -120 l35 -33 160 0 c170 0 208 8 230 49 13 25 13 64 0 56 -5 -3 -10
-16 -10 -27 0 -12 -3 -19 -6 -15 -4 3 -23 -5 -43 -18 -31 -22 -47 -25 -123
-25 -49 0 -88 4 -88 9 0 5 -29 8 -64 7 -36 -1 -63 1 -60 6 3 4 -1 5 -9 2 -16
-6 -47 50 -47 85 0 11 16 36 37 56 l36 35 155 0 c156 0 156 0 184 -27 15 -15
28 -32 28 -39 0 -7 5 -16 10 -19 25 -15 7 30 -24 61 l-34 34 -158 -1 c-125 0
-166 -4 -191 -16z m387 -163 c0 -5 -5 -10 -11 -10 -5 0 -7 5 -4 10 3 6 8 10
11 10 2 0 4 -4 4 -10z"/>
<path d="M2895 3160 c3 -5 8 -10 11 -10 2 0 4 5 4 10 0 6 -5 10 -11 10 -5 0
-7 -4 -4 -10z"/>
<path d="M4581 3154 c0 -11 3 -14 6 -6 3 7 2 16 -1 19 -3 4 -6 -2 -5 -13z"/>
<path d="M2941 3121 c-8 -5 -9 -11 -3 -15 5 -3 12 1 16 9 6 17 6 18 -13 6z"/>
<path d="M2885 3109 c-4 -6 -5 -12 -2 -15 2 -3 7 2 10 11 7 17 1 20 -8 4z"/>
<path d="M2950 3086 c0 -2 7 -7 16 -10 8 -3 12 -2 9 4 -6 10 -25 14 -25 6z"/>
<path d="M2975 3050 c-3 -5 -1 -10 4 -10 6 0 11 5 11 10 0 6 -2 10 -4 10 -3 0
-8 -4 -11 -10z"/>
<path d="M3000 3001 c0 -5 7 -15 17 -22 15 -13 15 -12 4 9 -12 23 -21 28 -21
13z"/>
<path d="M3043 2910 c6 -16 13 -27 15 -25 7 7 -8 55 -17 55 -5 0 -4 -13 2 -30z"/>
<path d="M3071 2876 c-7 -9 -8 -22 -3 -37 9 -22 10 -21 14 14 5 42 5 42 -11
23z"/>
<path d="M705 2610 c-16 -7 -17 -9 -3 -9 9 -1 20 4 23 9 7 11 7 11 -20 0z"/>
<path d="M859 2613 c63 -2 120 -8 126 -13 6 -5 21 -7 33 -3 14 3 22 1 22 -7 0
-7 8 -9 19 -5 18 5 101 -22 141 -46 8 -5 41 -24 74 -41 32 -18 68 -38 80 -45
36 -20 161 -146 191 -191 15 -23 30 -40 32 -38 3 2 -11 27 -30 55 -18 28 -37
48 -40 44 -4 -3 -7 1 -7 9 0 30 -143 142 -254 199 -125 65 -197 82 -356 84
-94 1 -105 1 -31 -2z"/>
<path d="M648 2593 c6 -2 18 -2 25 0 6 3 1 5 -13 5 -14 0 -19 -2 -12 -5z"/>
<path d="M570 2570 c-11 -8 -7 -9 15 -4 37 8 45 14 19 14 -10 0 -26 -5 -34
-10z"/>
<path d="M4165 2469 c-4 -6 -5 -12 -2 -15 2 -3 7 2 10 11 7 17 1 20 -8 4z"/>
<path d="M3046 2295 c-3 -8 -1 -15 4 -15 6 0 10 7 10 15 0 8 -2 15 -4 15 -2 0
-6 -7 -10 -15z"/>
<path d="M4290 2287 c-39 -20 -64 -75 -56 -122 7 -33 27 -59 119 -152 91 -90
119 -113 150 -118 72 -14 137 41 137 115 0 38 -62 130 -87 130 -4 0 -17 13
-28 30 -11 16 -30 35 -42 41 -13 7 -23 17 -23 22 0 5 -15 22 -32 38 -37 32
-93 39 -138 16z m102 -16 c-1 -7 1 -10 6 -7 8 5 183 -163 217 -209 31 -42 11
-105 -42 -130 -47 -23 -86 -12 -109 29 -6 11 -19 24 -29 30 -35 20 -47 36 -40
53 3 10 3 14 -1 11 -3 -4 -21 4 -40 18 -18 14 -38 23 -45 19 -8 -6 -8 -2 0 14
7 12 8 21 4 20 -25 -4 -43 3 -43 17 0 8 -4 13 -9 10 -13 -8 -4 79 10 102 17
27 41 37 87 36 24 0 36 -4 34 -13z m-17 -240 c-6 -5 -25 10 -25 20 0 5 6 4 14
-3 8 -7 12 -15 11 -17z m80 -80 c-6 -5 -25 10 -25 20 0 5 6 4 14 -3 8 -7 12
-15 11 -17z"/>
<path d="M4285 2140 c3 -5 8 -10 11 -10 2 0 4 5 4 10 0 6 -5 10 -11 10 -5 0
-7 -4 -4 -10z"/>
<path d="M1592 2190 c7 -10 14 -18 15 -16 6 6 -9 36 -18 36 -5 0 -4 -9 3 -20z"/>
<path d="M3730 2114 c0 -4 9 -15 21 -25 12 -10 18 -23 13 -30 -4 -8 -3 -9 4
-5 7 4 12 2 12 -4 0 -6 4 -9 9 -6 9 6 26 -22 22 -37 -1 -5 3 -6 8 -2 6 3 13
-6 17 -20 3 -14 10 -25 16 -25 5 0 6 -5 2 -12 -5 -7 -3 -8 6 -3 10 6 12 3 8
-13 -4 -12 -2 -20 3 -16 5 3 9 -1 9 -10 0 -8 -8 -13 -17 -11 -10 1 -27 -1 -39
-6 -11 -4 -36 -10 -54 -12 -38 -7 -196 -83 -224 -109 -10 -9 -23 -15 -28 -12
-5 3 -7 1 -6 -4 2 -5 -16 -28 -39 -51 -24 -22 -43 -45 -43 -51 0 -5 -4 -10
-10 -10 -5 0 -10 -5 -10 -11 0 -7 31 19 69 57 38 38 76 74 83 80 22 17 160 84
174 84 8 0 14 4 14 8 0 4 8 8 18 9 60 5 142 16 142 20 0 27 -129 206 -160 223
-11 6 -20 8 -20 4z"/>
<path d="M4345 1930 c-3 -6 1 -7 9 -4 18 7 21 14 7 14 -6 0 -13 -4 -16 -10z"/>
<path d="M4008 1873 c7 -3 16 -2 19 1 4 3 -2 6 -13 5 -11 0 -14 -3 -6 -6z"/>
<path d="M4140 1844 c25 -10 47 -20 50 -24 3 -4 25 -17 50 -29 70 -34 90 -47
82 -55 -4 -4 0 -6 8 -4 8 2 14 -2 15 -9 0 -7 15 -23 32 -36 18 -13 30 -27 26
-30 -3 -4 1 -7 10 -7 19 0 24 -20 5 -20 -7 0 -1 -8 14 -17 27 -17 48 -51 48
-81 0 -14 2 -14 9 -3 7 10 11 5 16 -18 3 -17 11 -31 16 -31 6 0 7 -4 4 -10 -3
-5 1 -24 9 -42 21 -44 31 -110 30 -188 -3 -116 -6 -130 -31 -136 -13 -4 -23
-10 -23 -15 0 -6 8 -6 19 0 10 6 21 8 24 5 15 -16 29 89 24 186 -8 169 -66
298 -188 420 -67 67 -197 143 -264 155 -20 3 -15 0 15 -11z"/>
<path d="M3384 1587 c-6 -12 -22 -44 -36 -72 -28 -55 -53 -161 -45 -191 3 -13
5 -9 6 11 1 17 6 47 11 67 6 21 11 40 10 43 0 3 18 41 40 85 22 44 37 80 33
80 -5 0 -13 -10 -19 -23z"/>
<path d="M135 1310 c3 -5 8 -10 11 -10 2 0 4 5 4 10 0 6 -5 10 -11 10 -5 0 -7
-4 -4 -10z"/>
<path d="M3037 1313 c-4 -3 -7 -11 -7 -17 0 -7 3 -7 8 0 4 7 16 14 27 17 19 5
19 5 -1 6 -11 0 -24 -2 -27 -6z"/>
<path d="M2955 1280 c-7 -12 2 -12 30 0 19 8 19 9 -2 9 -12 1 -25 -3 -28 -9z"/>
<path d="M3323 1269 c11 -6 24 -12 30 -13 7 -2 25 -9 40 -16 21 -10 24 -16 15
-23 -9 -6 -7 -7 6 -3 28 10 123 -66 173 -136 14 -21 31 -38 37 -37 7 0 6 3 -1
6 -7 2 -13 11 -13 19 0 8 -7 17 -15 20 -8 4 -15 11 -15 18 0 13 -69 80 -117
113 -34 24 -125 63 -146 63 -7 0 -4 -5 6 -11z"/>
<path d="M2904 1255 c-12 -8 -24 -11 -28 -8 -3 3 -6 1 -6 -5 0 -7 -4 -12 -10
-12 -38 0 -147 -125 -193 -222 l-41 -87 -201 -3 c-110 -2 -525 -3 -921 -3
-397 0 -717 -3 -710 -7 6 -4 424 -8 929 -8 802 0 917 2 917 15 0 8 16 49 36
91 41 88 127 181 214 232 30 17 50 32 45 32 -6 0 -20 -7 -31 -15z"/>
<path d="M210 1206 c0 -2 7 -7 16 -10 8 -3 12 -2 9 4 -6 10 -25 14 -25 6z"/>
<path d="M316 1107 c3 -10 9 -15 12 -12 3 3 0 11 -7 18 -10 9 -11 8 -5 -6z"/>
<path d="M4636 1102 c-2 -4 12 -6 32 -4 56 5 62 10 15 11 -23 1 -44 -3 -47 -7z"/>
<path d="M4586 1091 c-4 -5 3 -7 14 -4 23 6 26 13 6 13 -8 0 -17 -4 -20 -9z"/>
<path d="M4760 1090 c60 -18 140 -52 140 -59 0 -4 11 -13 24 -21 13 -7 27 -21
29 -32 3 -11 10 -17 15 -14 19 11 104 -114 108 -159 1 -9 11 -36 28 -75 3 -8
4 5 2 29 -7 67 -61 165 -125 223 -62 56 -158 106 -217 113 l-39 5 35 -10z"/>
<path d="M432 1024 c10 -10 20 -15 24 -12 3 4 -5 12 -18 18 -22 12 -22 12 -6
-6z"/>
<path d="M477 999 c7 -7 15 -10 18 -7 3 3 -2 9 -12 12 -14 6 -15 5 -6 -5z"/>
<path d="M515 980 c3 -5 8 -10 11 -10 2 0 4 5 4 10 0 6 -5 10 -11 10 -5 0 -7
-4 -4 -10z"/>
<path d="M540 971 c0 -5 7 -12 16 -15 14 -5 15 -4 4 9 -14 17 -20 19 -20 6z"/>
<path d="M620 946 c0 -2 7 -6 15 -10 8 -3 15 -1 15 4 0 6 -7 10 -15 10 -8 0
-15 -2 -15 -4z"/>
<path d="M670 930 c20 -13 43 -13 35 0 -3 6 -16 10 -28 10 -18 0 -19 -2 -7
-10z"/>
<path d="M720 919 c0 -5 9 -9 20 -9 11 0 20 2 20 4 0 2 -9 6 -20 9 -11 3 -20
1 -20 -4z"/>
<path d="M1698 923 c6 -2 18 -2 25 0 6 3 1 5 -13 5 -14 0 -19 -2 -12 -5z"/>
<path d="M2621 764 c0 -21 4 -48 9 -59 5 -12 6 1 3 35 -7 66 -13 79 -12 24z"/>
<path d="M353 667 c-121 -121 -123 -124 -123 -168 0 -51 18 -82 60 -104 36
-19 73 -19 108 -1 32 17 215 201 231 233 39 76 -23 163 -116 163 -34 0 -46 -9
-160 -123z m233 79 c24 -25 35 -83 18 -97 -8 -6 -12 -15 -9 -19 3 -4 -3 -14
-13 -21 -16 -13 -16 -13 -2 6 14 19 14 19 -2 6 -10 -7 -16 -17 -13 -21 3 -5
-6 -21 -21 -37 -14 -15 -22 -22 -18 -14 5 9 3 12 -4 7 -7 -4 -12 -13 -12 -20
0 -14 -68 -80 -93 -89 -10 -4 -16 -11 -13 -16 7 -11 -47 -34 -71 -29 -10 2
-17 9 -16 15 1 6 -6 9 -16 6 -22 -6 -46 29 -49 73 -3 23 5 38 30 64 18 18 26
30 18 26 -8 -4 4 10 27 31 22 21 62 61 89 88 26 28 41 41 34 30 -8 -11 -1 -7
15 9 24 24 34 27 66 23 21 -3 46 -12 55 -21z"/>
<path d="M1319 772 c-48 -33 -211 -204 -224 -237 -28 -66 18 -142 92 -152 57
-7 83 10 200 130 113 116 128 147 99 209 -30 63 -112 88 -167 50z m40 -14 c11
-11 12 -10 6 1 -6 11 -1 12 31 7 49 -10 73 -30 69 -61 -1 -14 2 -22 7 -18 15
8 -1 -39 -21 -61 -13 -15 -13 -18 -1 -11 8 5 -25 -29 -74 -76 -49 -46 -93 -83
-98 -81 -5 1 -7 -2 -3 -8 3 -6 -1 -18 -10 -27 -14 -13 -18 -14 -25 -2 -7 11
-10 10 -16 -4 -4 -13 -14 -16 -37 -11 -36 6 -59 22 -51 35 3 5 -3 9 -13 9 -14
0 -15 2 -5 9 11 7 11 9 -2 14 -23 9 -2 72 37 110 18 17 31 36 29 42 -2 5 0 7
3 3 9 -8 81 63 77 75 -1 5 2 6 8 2 5 -3 10 -2 10 3 0 5 11 15 25 22 13 7 24
16 23 19 -2 24 11 28 31 9z"/>
<path d="M1256 662 c-3 -5 1 -9 9 -9 8 0 12 4 9 9 -3 4 -7 8 -9 8 -2 0 -6 -4
-9 -8z"/>
<path d="M1176 582 c-3 -5 1 -9 9 -9 8 0 12 4 9 9 -3 4 -7 8 -9 8 -2 0 -6 -4
-9 -8z"/>
<path d="M2175 771 c-46 -28 -213 -204 -225 -237 -17 -44 -4 -88 36 -123 69
-61 125 -39 262 104 107 111 122 141 98 199 -29 71 -108 97 -171 57z m126 -30
c29 -31 34 -55 23 -99 -5 -17 -12 -21 -28 -17 -11 2 -15 2 -8 -1 6 -3 12 -10
12 -15 0 -17 -176 -185 -207 -198 -60 -25 -124 19 -121 83 1 20 5 33 9 30 5
-3 6 2 3 10 -3 8 3 23 14 34 11 11 17 24 14 28 -4 3 3 2 14 -4 27 -14 36 -5
23 21 -6 10 -7 17 -2 15 11 -6 53 39 44 48 -3 4 4 2 15 -4 27 -14 36 -5 22 22
-6 11 -8 18 -4 15 3 -3 22 9 41 27 23 22 41 31 52 27 10 -4 14 -2 10 4 -15 24
47 2 74 -26z"/>
<path d="M2166 503 c-6 -14 -5 -15 5 -6 7 7 10 15 7 18 -3 3 -9 -2 -12 -12z"/>
<path d="M2083 465 c0 -8 4 -12 9 -9 5 3 6 10 3 15 -9 13 -12 11 -12 -6z"/>
<path d="M2115 460 c-3 -6 1 -7 9 -4 18 7 21 14 7 14 -6 0 -13 -4 -16 -10z"/>
<path d="M2369 773 c-13 -16 -12 -17 4 -4 9 7 17 15 17 17 0 8 -8 3 -21 -13z"/>
<path d="M1920 635 c0 -2 6 -8 13 -14 10 -8 14 -7 14 2 0 8 -6 14 -14 14 -7 0
-13 -1 -13 -2z"/>
<path d="M5101 602 c0 -13 -5 -20 -11 -17 -5 3 -10 -1 -10 -10 0 -10 5 -14 13
-9 10 6 10 4 0 -7 -7 -7 -13 -19 -13 -27 0 -7 -7 -20 -15 -29 -9 -8 -14 -20
-12 -26 2 -7 -5 -21 -16 -32 -10 -11 -23 -30 -28 -42 -5 -14 -14 -20 -23 -17
-8 3 -17 1 -21 -5 -4 -7 1 -9 12 -5 10 3 -4 -15 -32 -39 -27 -25 -53 -43 -57
-41 -3 2 -9 0 -13 -5 -3 -6 -13 -8 -23 -5 -14 5 -15 4 -2 -5 13 -9 12 -11 -5
-12 -11 -1 -26 -2 -32 -2 -7 1 -11 -3 -8 -7 10 -16 -108 -19 -887 -22 -439 -2
-798 -6 -798 -11 0 -11 1576 -8 1639 4 152 29 287 146 337 292 8 25 14 58 11
74 -3 23 -4 24 -6 5z"/>
<path d="M2745 430 c3 -5 8 -10 11 -10 2 0 4 5 4 10 0 6 -5 10 -11 10 -5 0 -7
-4 -4 -10z"/>
<path d="M2860 326 c0 -2 8 -10 18 -17 15 -13 16 -12 3 4 -13 16 -21 21 -21
13z"/>
<path d="M2910 290 c8 -5 20 -10 25 -10 6 0 3 5 -5 10 -8 5 -19 10 -25 10 -5
0 -3 -5 5 -10z"/>
<path d="M2986 261 c5 -5 23 -12 39 -16 30 -6 30 -6 -4 10 -38 17 -49 19 -35
6z"/>
<path d="M3073 233 c9 -2 23 -2 30 0 6 3 -1 5 -18 5 -16 0 -22 -2 -12 -5z"/>
</g>
</svg>
